<svg xmlns="http://www.w3.org/2000/svg" xmlns:xlink="http://www.w3.org/1999/xlink" width="50" zoomAndPan="magnify" viewBox="0 0 37.5 37.499999" height="50" preserveAspectRatio="xMidYMid meet" version="1.0"><defs><clipPath id="be3aa31977"><path d="M 0 0 L 37.007812 0 L 37.007812 37.007812 L 0 37.007812 Z M 0 0 " clip-rule="nonzero"/></clipPath><clipPath id="ab3b283074"><path d="M 0 3.933594 L 19 3.933594 L 19 20 L 0 20 Z M 0 3.933594 " clip-rule="nonzero"/></clipPath><clipPath id="829316dc90"><path d="M 4 18 L 19 18 L 19 33.539062 L 4 33.539062 Z M 4 18 " clip-rule="nonzero"/></clipPath><clipPath id="1f9450c4f0"><path d="M 18 18 L 33 18 L 33 33.539062 L 18 33.539062 Z M 18 18 " clip-rule="nonzero"/></clipPath><clipPath id="45c814479d"><path d="M 17 18 L 33 18 L 33 33.539062 L 17 33.539062 Z M 17 18 " clip-rule="nonzero"/></clipPath><clipPath id="63787d9a03"><path d="M 17 3.933594 L 37 3.933594 L 37 20 L 17 20 Z M 17 3.933594 " clip-rule="nonzero"/></clipPath></defs><g clip-path="url(#be3aa31977)"><path fill="#ffffff" d="M 0 0 L 37.007812 0 L 37.007812 37.007812 L 0 37.007812 Z M 0 0 " fill-opacity="1" fill-rule="nonzero"/><path fill="#ffffff" d="M 0 0 L 37.007812 0 L 37.007812 37.007812 L 0 37.007812 Z M 0 0 " fill-opacity="1" fill-rule="nonzero"/></g><path fill="#ed6666" d="M 30.007812 17 C 30.007812 17.566406 29.960938 18.117188 29.871094 18.652344 C 28.574219 26.449219 18.457031 30.800781 18.457031 30.800781 C 18.457031 30.800781 18.367188 30.765625 18.207031 30.695312 C 16.628906 29.992188 8.019531 25.859375 6.839844 18.652344 C 6.75 18.117188 6.703125 17.566406 6.703125 17 C 6.703125 12.703125 9.769531 9.21875 13.546875 9.21875 C 15.421875 9.21875 17.121094 10.078125 18.355469 11.464844 C 19.59375 10.078125 21.292969 9.21875 23.164062 9.21875 C 26.941406 9.21875 30.007812 12.703125 30.007812 17 Z M 30.007812 17 " fill-opacity="1" fill-rule="nonzero"/><path fill="#444444" d="M 18.457031 31.261719 C 18.398438 31.261719 18.339844 31.25 18.289062 31.230469 C 18.289062 31.230469 18.195312 31.191406 18.023438 31.117188 C 16.292969 30.347656 7.597656 26.140625 6.386719 18.726562 C 6.292969 18.167969 6.246094 17.589844 6.246094 17 C 6.246094 12.457031 9.523438 8.757812 13.546875 8.757812 C 15.335938 8.757812 17.023438 9.480469 18.355469 10.800781 C 19.6875 9.480469 21.378906 8.757812 23.164062 8.757812 C 27.191406 8.757812 30.46875 12.457031 30.46875 17 C 30.46875 17.578125 30.417969 18.15625 30.324219 18.726562 C 29.003906 26.683594 19.058594 31.042969 18.632812 31.226562 C 18.578125 31.25 18.515625 31.261719 18.457031 31.261719 Z M 13.546875 9.683594 C 10.027344 9.683594 7.164062 12.964844 7.164062 17 C 7.164062 17.535156 7.207031 18.0625 7.292969 18.574219 C 8.425781 25.523438 16.738281 29.539062 18.390625 30.269531 C 18.410156 30.28125 18.429688 30.289062 18.449219 30.296875 C 19.777344 29.679688 28.269531 25.480469 29.417969 18.574219 C 29.503906 18.054688 29.546875 17.527344 29.546875 17 C 29.546875 12.964844 26.683594 9.683594 23.164062 9.683594 C 21.480469 9.683594 19.898438 10.425781 18.695312 11.777344 C 18.523438 11.972656 18.1875 11.972656 18.011719 11.777344 C 16.8125 10.425781 15.222656 9.683594 13.546875 9.683594 Z M 13.546875 9.683594 " fill-opacity="1" fill-rule="nonzero"/><path fill="#e4f3f4" d="M 18.355469 4.394531 L 18.355469 11.464844 C 17.121094 10.078125 15.421875 9.21875 13.546875 9.21875 C 9.769531 9.21875 6.703125 12.703125 6.703125 17 C 6.703125 17.566406 6.75 18.117188 6.839844 18.652344 L 4.546875 18.652344 L 4.546875 13.300781 C 4.113281 13.742188 3.511719 14.011719 2.851562 14.011719 C 1.53125 14.011719 0.457031 12.933594 0.457031 11.601562 C 0.457031 10.273438 1.53125 9.191406 2.851562 9.191406 C 3.511719 9.191406 4.113281 9.464844 4.546875 9.90625 L 4.546875 4.394531 Z M 18.355469 4.394531 " fill-opacity="1" fill-rule="nonzero"/><g clip-path="url(#ab3b283074)"><path fill="#444444" d="M 6.839844 19.113281 L 4.546875 19.113281 C 4.292969 19.113281 4.089844 18.90625 4.089844 18.652344 L 4.089844 14.191406 C 3.707031 14.375 3.285156 14.472656 2.851562 14.472656 C 1.28125 14.472656 0 13.1875 0 11.601562 C 0 10.019531 1.28125 8.730469 2.851562 8.730469 C 3.285156 8.730469 3.707031 8.828125 4.089844 9.015625 L 4.089844 4.394531 C 4.089844 4.140625 4.292969 3.933594 4.546875 3.933594 L 18.355469 3.933594 C 18.609375 3.933594 18.816406 4.140625 18.816406 4.394531 L 18.816406 11.464844 C 18.816406 11.660156 18.699219 11.828125 18.519531 11.898438 C 18.34375 11.96875 18.140625 11.917969 18.015625 11.777344 C 16.8125 10.425781 15.226562 9.683594 13.546875 9.683594 C 10.027344 9.683594 7.164062 12.964844 7.164062 17 C 7.164062 17.535156 7.207031 18.0625 7.292969 18.574219 C 7.3125 18.710938 7.277344 18.84375 7.191406 18.949219 C 7.101562 19.054688 6.976562 19.113281 6.839844 19.113281 Z M 5.003906 18.1875 L 6.3125 18.1875 C 6.269531 17.796875 6.246094 17.402344 6.246094 17 C 6.246094 12.457031 9.523438 8.757812 13.546875 8.757812 C 15.136719 8.757812 16.644531 9.328125 17.898438 10.378906 L 17.898438 4.859375 L 5.003906 4.859375 L 5.003906 9.90625 C 5.003906 10.09375 4.894531 10.261719 4.722656 10.332031 C 4.550781 10.402344 4.351562 10.363281 4.222656 10.230469 C 3.855469 9.859375 3.367188 9.65625 2.851562 9.65625 C 1.785156 9.65625 0.917969 10.527344 0.917969 11.601562 C 0.917969 12.675781 1.785156 13.550781 2.851562 13.550781 C 3.371094 13.550781 3.855469 13.34375 4.222656 12.972656 C 4.351562 12.839844 4.550781 12.800781 4.722656 12.871094 C 4.894531 12.945312 5.003906 13.113281 5.003906 13.300781 Z M 5.003906 18.1875 " fill-opacity="1" fill-rule="nonzero"/></g><path fill="#444444" d="M 18.355469 19.113281 L 13.382812 19.113281 C 13.195312 19.113281 13.027344 19 12.957031 18.828125 C 12.886719 18.65625 12.925781 18.457031 13.054688 18.324219 C 13.203125 18.175781 13.328125 18.003906 13.421875 17.816406 C 13.558594 17.542969 13.628906 17.25 13.628906 16.941406 C 13.628906 15.867188 12.761719 14.996094 11.695312 14.996094 C 10.628906 14.996094 9.765625 15.867188 9.765625 16.941406 C 9.765625 17.25 9.835938 17.542969 9.972656 17.816406 C 10.066406 18.003906 10.1875 18.175781 10.339844 18.324219 C 10.46875 18.457031 10.507812 18.65625 10.4375 18.828125 C 10.367188 19.003906 10.199219 19.113281 10.011719 19.113281 L 6.839844 19.113281 C 6.613281 19.113281 6.425781 18.953125 6.386719 18.726562 C 6.292969 18.167969 6.246094 17.585938 6.246094 17 C 6.246094 12.457031 9.523438 8.757812 13.546875 8.757812 C 15.492188 8.757812 17.320312 9.609375 18.699219 11.15625 C 18.773438 11.242188 18.816406 11.351562 18.816406 11.464844 L 18.816406 18.652344 C 18.816406 18.90625 18.609375 19.113281 18.355469 19.113281 Z M 14.265625 18.1875 L 17.898438 18.1875 L 17.898438 11.648438 C 16.710938 10.378906 15.175781 9.683594 13.546875 9.683594 C 10.027344 9.683594 7.164062 12.964844 7.164062 17 C 7.164062 17.402344 7.1875 17.800781 7.234375 18.1875 L 9.132812 18.1875 C 8.945312 17.796875 8.851562 17.378906 8.851562 16.941406 C 8.851562 15.359375 10.128906 14.070312 11.699219 14.070312 C 13.269531 14.070312 14.546875 15.359375 14.546875 16.941406 C 14.546875 17.378906 14.453125 17.796875 14.265625 18.1875 Z M 14.265625 18.1875 " fill-opacity="1" fill-rule="nonzero"/><g clip-path="url(#829316dc90)"><path fill="#e4f3f4" d="M 18.207031 30.695312 L 18.207031 33.066406 L 4.546875 33.066406 L 4.546875 28.25 C 5.730469 28.105469 6.648438 27.089844 6.648438 25.859375 C 6.648438 24.628906 5.730469 23.609375 4.546875 23.46875 L 4.546875 18.652344 L 6.839844 18.652344 C 8.019531 25.859375 16.628906 29.992188 18.207031 30.695312 Z M 18.207031 30.695312 " fill-opacity="1" fill-rule="nonzero"/><path fill="#444444" d="M 18.207031 33.527344 L 4.546875 33.527344 C 4.292969 33.527344 4.089844 33.320312 4.089844 33.066406 L 4.089844 28.25 C 4.089844 28.015625 4.261719 27.816406 4.492188 27.789062 C 5.460938 27.671875 6.191406 26.839844 6.191406 25.859375 C 6.191406 24.878906 5.460938 24.042969 4.492188 23.925781 C 4.261719 23.898438 4.089844 23.703125 4.089844 23.46875 L 4.089844 18.652344 C 4.089844 18.398438 4.292969 18.1875 4.546875 18.1875 L 6.839844 18.1875 C 7.0625 18.1875 7.253906 18.351562 7.292969 18.574219 C 8.425781 25.519531 16.738281 29.535156 18.390625 30.269531 C 18.558594 30.34375 18.664062 30.507812 18.664062 30.691406 L 18.664062 33.0625 C 18.664062 33.316406 18.457031 33.523438 18.207031 33.523438 Z M 5.003906 32.601562 L 17.75 32.601562 L 17.75 30.992188 C 15.570312 29.980469 7.835938 25.960938 6.457031 19.113281 L 5.003906 19.113281 L 5.003906 23.089844 C 6.226562 23.421875 7.109375 24.546875 7.109375 25.859375 C 7.109375 27.167969 6.230469 28.292969 5.003906 28.628906 Z M 5.003906 32.601562 " fill-opacity="1" fill-rule="nonzero"/></g><path fill="#444444" d="M 18.207031 31.15625 C 18.144531 31.15625 18.082031 31.140625 18.023438 31.117188 C 16.289062 30.347656 7.597656 26.140625 6.386719 18.726562 C 6.363281 18.589844 6.402344 18.453125 6.488281 18.351562 C 6.574219 18.246094 6.703125 18.1875 6.835938 18.1875 L 9.128906 18.1875 C 8.941406 17.796875 8.847656 17.375 8.847656 16.9375 C 8.847656 15.355469 10.125 14.070312 11.695312 14.070312 C 13.265625 14.070312 14.546875 15.355469 14.546875 16.9375 C 14.546875 17.375 14.449219 17.796875 14.265625 18.1875 L 18.210938 18.1875 C 18.460938 18.1875 18.667969 18.394531 18.667969 18.648438 L 18.667969 24.160156 C 18.667969 24.34375 18.554688 24.515625 18.382812 24.585938 C 18.210938 24.65625 18.015625 24.617188 17.882812 24.484375 C 17.515625 24.113281 17.03125 23.910156 16.515625 23.910156 C 15.449219 23.910156 14.582031 24.78125 14.582031 25.855469 C 14.582031 26.929688 15.449219 27.800781 16.515625 27.800781 C 17.03125 27.800781 17.519531 27.597656 17.882812 27.226562 C 18.015625 27.09375 18.210938 27.054688 18.382812 27.125 C 18.554688 27.195312 18.667969 27.367188 18.667969 27.554688 L 18.667969 30.691406 C 18.667969 30.847656 18.589844 30.992188 18.460938 31.078125 C 18.382812 31.128906 18.296875 31.152344 18.210938 31.152344 Z M 7.394531 19.113281 C 8.710938 25.082031 15.289062 28.777344 17.75 29.96875 L 17.75 28.445312 C 17.367188 28.628906 16.949219 28.730469 16.511719 28.730469 C 14.941406 28.730469 13.664062 27.441406 13.664062 25.859375 C 13.664062 24.277344 14.941406 22.988281 16.511719 22.988281 C 16.949219 22.988281 17.367188 23.082031 17.75 23.269531 L 17.75 19.113281 L 13.382812 19.113281 C 13.195312 19.113281 13.027344 19 12.957031 18.828125 C 12.886719 18.65625 12.925781 18.457031 13.054688 18.324219 C 13.203125 18.175781 13.328125 18.003906 13.421875 17.816406 C 13.558594 17.542969 13.628906 17.25 13.628906 16.941406 C 13.628906 15.867188 12.761719 14.996094 11.695312 14.996094 C 10.628906 14.996094 9.765625 15.867188 9.765625 16.941406 C 9.765625 17.25 9.835938 17.542969 9.972656 17.816406 C 10.066406 18.003906 10.1875 18.175781 10.339844 18.324219 C 10.46875 18.457031 10.507812 18.65625 10.4375 18.828125 C 10.367188 19.003906 10.199219 19.113281 10.011719 19.113281 Z M 7.394531 19.113281 " fill-opacity="1" fill-rule="nonzero"/><g clip-path="url(#1f9450c4f0)"><path fill="#e4f3f4" d="M 32.511719 18.652344 L 32.511719 33.066406 L 27.730469 33.066406 C 27.589844 31.871094 26.582031 30.945312 25.359375 30.945312 C 24.132812 30.945312 23.128906 31.871094 22.988281 33.066406 L 18.207031 33.066406 L 18.207031 30.695312 C 18.367188 30.765625 18.457031 30.800781 18.457031 30.800781 C 18.457031 30.800781 28.574219 26.449219 29.871094 18.652344 Z M 32.511719 18.652344 " fill-opacity="1" fill-rule="nonzero"/></g><g clip-path="url(#45c814479d)"><path fill="#444444" d="M 32.511719 33.527344 L 27.730469 33.527344 C 27.5 33.527344 27.300781 33.351562 27.273438 33.117188 C 27.160156 32.140625 26.335938 31.40625 25.359375 31.40625 C 24.382812 31.40625 23.558594 32.140625 23.445312 33.117188 C 23.417969 33.351562 23.222656 33.527344 22.988281 33.527344 L 18.207031 33.527344 C 17.957031 33.527344 17.75 33.320312 17.75 33.066406 L 17.75 30.695312 C 17.75 30.535156 17.828125 30.390625 17.957031 30.304688 C 18.089844 30.21875 18.25 30.207031 18.394531 30.269531 C 18.414062 30.28125 18.433594 30.285156 18.449219 30.296875 C 19.777344 29.679688 28.269531 25.480469 29.417969 18.574219 C 29.453125 18.351562 29.648438 18.1875 29.867188 18.1875 L 32.507812 18.1875 C 32.761719 18.1875 32.964844 18.398438 32.964844 18.652344 L 32.964844 33.066406 C 32.964844 33.320312 32.761719 33.527344 32.507812 33.527344 Z M 28.109375 32.601562 L 32.050781 32.601562 L 32.050781 19.113281 L 30.25 19.113281 C 28.707031 26.6875 19.394531 30.894531 18.667969 31.210938 L 18.667969 32.601562 L 22.609375 32.601562 C 22.9375 31.371094 24.054688 30.484375 25.359375 30.484375 C 26.660156 30.484375 27.777344 31.367188 28.109375 32.601562 Z M 28.109375 32.601562 " fill-opacity="1" fill-rule="nonzero"/></g><path fill="#444444" d="M 18.457031 31.261719 C 18.398438 31.261719 18.339844 31.25 18.289062 31.230469 C 18.289062 31.230469 18.195312 31.191406 18.023438 31.117188 C 17.855469 31.042969 17.75 30.875 17.75 30.695312 L 17.75 28.445312 C 17.367188 28.628906 16.949219 28.730469 16.511719 28.730469 C 14.941406 28.730469 13.664062 27.441406 13.664062 25.859375 C 13.664062 24.277344 14.941406 22.988281 16.511719 22.988281 C 16.949219 22.988281 17.367188 23.082031 17.75 23.269531 L 17.75 18.652344 C 17.75 18.398438 17.957031 18.1875 18.207031 18.1875 L 22.378906 18.1875 C 22.332031 17.960938 22.308594 17.730469 22.308594 17.496094 C 22.308594 15.746094 23.71875 14.300781 25.457031 14.277344 C 27.1875 14.300781 28.582031 15.746094 28.582031 17.496094 C 28.582031 17.730469 28.558594 17.964844 28.507812 18.1875 L 29.871094 18.1875 C 30.007812 18.1875 30.136719 18.25 30.222656 18.351562 C 30.308594 18.457031 30.347656 18.59375 30.324219 18.726562 C 29.003906 26.683594 19.058594 31.042969 18.636719 31.226562 C 18.578125 31.25 18.515625 31.261719 18.457031 31.261719 Z M 18.207031 27.09375 C 18.265625 27.09375 18.328125 27.105469 18.382812 27.128906 C 18.554688 27.199219 18.667969 27.367188 18.667969 27.554688 L 18.667969 30.191406 C 20.464844 29.324219 27.898438 25.398438 29.3125 19.113281 L 27.875 19.113281 C 27.71875 19.113281 27.574219 19.03125 27.492188 18.902344 C 27.410156 18.769531 27.394531 18.601562 27.460938 18.457031 C 27.597656 18.160156 27.667969 17.835938 27.667969 17.496094 C 27.667969 16.25 26.675781 15.21875 25.457031 15.203125 C 24.230469 15.21875 23.226562 16.25 23.226562 17.496094 C 23.226562 17.832031 23.296875 18.15625 23.433594 18.453125 C 23.5 18.597656 23.492188 18.765625 23.40625 18.898438 C 23.324219 19.03125 23.179688 19.113281 23.019531 19.113281 L 18.667969 19.113281 L 18.667969 24.160156 C 18.667969 24.347656 18.554688 24.515625 18.382812 24.589844 C 18.210938 24.660156 18.015625 24.621094 17.882812 24.488281 C 17.515625 24.113281 17.03125 23.910156 16.515625 23.910156 C 15.449219 23.910156 14.582031 24.785156 14.582031 25.859375 C 14.582031 26.933594 15.449219 27.804688 16.515625 27.804688 C 17.03125 27.804688 17.519531 27.601562 17.882812 27.230469 C 17.972656 27.140625 18.089844 27.09375 18.210938 27.09375 Z M 18.207031 27.09375 " fill-opacity="1" fill-rule="nonzero"/><path fill="#e4f3f4" d="M 36.542969 11.601562 C 36.542969 12.933594 35.480469 14.011719 34.179688 14.011719 C 33.519531 14.011719 32.929688 13.742188 32.5 13.300781 L 32.5 18.652344 L 29.871094 18.652344 C 29.960938 18.117188 30.007812 17.566406 30.007812 17 C 30.007812 12.703125 26.941406 9.21875 23.164062 9.21875 C 21.292969 9.21875 19.59375 10.078125 18.355469 11.464844 L 18.355469 4.394531 L 23.085938 4.394531 C 23.222656 5.589844 24.21875 6.515625 25.425781 6.515625 C 26.636719 6.515625 27.636719 5.589844 27.777344 4.394531 L 32.5 4.394531 L 32.5 9.90625 C 32.929688 9.464844 33.519531 9.191406 34.179688 9.191406 C 35.480469 9.191406 36.542969 10.273438 36.542969 11.601562 Z M 36.542969 11.601562 " fill-opacity="1" fill-rule="nonzero"/><g clip-path="url(#63787d9a03)"><path fill="#444444" d="M 32.5 19.113281 L 29.871094 19.113281 C 29.734375 19.113281 29.609375 19.054688 29.519531 18.949219 C 29.433594 18.84375 29.398438 18.710938 29.417969 18.574219 C 29.507812 18.054688 29.550781 17.527344 29.550781 17 C 29.550781 12.964844 26.6875 9.683594 23.164062 9.683594 C 21.484375 9.683594 19.898438 10.425781 18.699219 11.777344 C 18.570312 11.917969 18.371094 11.96875 18.195312 11.898438 C 18.015625 11.828125 17.898438 11.660156 17.898438 11.464844 L 17.898438 4.394531 C 17.898438 4.140625 18.105469 3.933594 18.355469 3.933594 L 23.085938 3.933594 C 23.316406 3.933594 23.511719 4.109375 23.539062 4.34375 C 23.652344 5.316406 24.464844 6.054688 25.425781 6.054688 C 26.390625 6.054688 27.207031 5.316406 27.320312 4.34375 C 27.347656 4.109375 27.542969 3.933594 27.777344 3.933594 L 32.5 3.933594 C 32.753906 3.933594 32.960938 4.140625 32.960938 4.394531 L 32.960938 9.011719 C 33.335938 8.828125 33.75 8.730469 34.179688 8.730469 C 35.734375 8.730469 37 10.019531 37 11.601562 C 37 13.1875 35.734375 14.472656 34.179688 14.472656 C 33.75 14.472656 33.335938 14.375 32.960938 14.195312 L 32.960938 18.652344 C 32.960938 18.90625 32.753906 19.113281 32.5 19.113281 Z M 30.398438 18.1875 L 32.042969 18.1875 L 32.042969 13.300781 C 32.042969 13.113281 32.15625 12.945312 32.328125 12.871094 C 32.5 12.800781 32.699219 12.839844 32.828125 12.976562 C 33.183594 13.34375 33.664062 13.550781 34.175781 13.550781 C 35.226562 13.550781 36.082031 12.675781 36.082031 11.601562 C 36.082031 10.53125 35.226562 9.65625 34.175781 9.65625 C 33.664062 9.65625 33.1875 9.859375 32.828125 10.226562 C 32.695312 10.363281 32.5 10.402344 32.328125 10.332031 C 32.15625 10.261719 32.042969 10.09375 32.042969 9.90625 L 32.042969 4.859375 L 28.152344 4.859375 C 27.824219 6.089844 26.71875 6.980469 25.425781 6.980469 C 24.136719 6.980469 23.03125 6.089844 22.707031 4.859375 L 18.816406 4.859375 L 18.816406 10.378906 C 20.066406 9.328125 21.578125 8.757812 23.164062 8.757812 C 27.191406 8.757812 30.46875 12.457031 30.46875 17 C 30.46875 17.398438 30.445312 17.792969 30.398438 18.1875 Z M 30.398438 18.1875 " fill-opacity="1" fill-rule="nonzero"/></g><path fill="#444444" d="M 29.871094 19.113281 L 27.875 19.113281 C 27.71875 19.113281 27.574219 19.03125 27.492188 18.902344 C 27.410156 18.769531 27.394531 18.601562 27.460938 18.457031 C 27.597656 18.160156 27.667969 17.835938 27.667969 17.496094 C 27.667969 16.25 26.675781 15.21875 25.457031 15.203125 C 24.230469 15.21875 23.226562 16.25 23.226562 17.496094 C 23.226562 17.832031 23.296875 18.15625 23.433594 18.453125 C 23.5 18.597656 23.492188 18.765625 23.40625 18.898438 C 23.324219 19.03125 23.179688 19.113281 23.019531 19.113281 L 18.359375 19.113281 C 18.105469 19.113281 17.898438 18.90625 17.898438 18.652344 L 17.898438 11.464844 C 17.898438 11.355469 17.941406 11.242188 18.015625 11.15625 C 19.394531 9.609375 21.222656 8.757812 23.167969 8.757812 C 27.191406 8.757812 30.46875 12.457031 30.46875 17 C 30.46875 17.578125 30.421875 18.15625 30.324219 18.726562 C 30.289062 18.949219 30.097656 19.113281 29.875 19.113281 Z M 28.507812 18.1875 L 29.472656 18.1875 C 29.523438 17.792969 29.550781 17.398438 29.550781 17 C 29.550781 12.964844 26.6875 9.683594 23.164062 9.683594 C 21.539062 9.683594 20 10.378906 18.816406 11.648438 L 18.816406 18.1875 L 22.378906 18.1875 C 22.332031 17.960938 22.308594 17.730469 22.308594 17.496094 C 22.308594 15.746094 23.71875 14.300781 25.457031 14.277344 C 27.1875 14.300781 28.582031 15.746094 28.582031 17.496094 C 28.582031 17.730469 28.558594 17.964844 28.507812 18.1875 Z M 28.507812 18.1875 " fill-opacity="1" fill-rule="nonzero"/></svg>